<svg xmlns="http://www.w3.org/2000/svg" width="59" height="62" fill="none"><circle cx="29.5" cy="29.5" r="29.5" fill="#292B46"/><g filter="url(#a)"><path fill="url(#b)" d="M29.045 45.618c-2.64 0-4.878-.435-6.714-1.305-1.837-.899-3.4-2.05-4.692-3.454l4.304-4.255c2.038 2.247 4.548 3.37 7.533 3.37 1.607 0 2.797-.323 3.572-.969.775-.646 1.162-1.502 1.162-2.57 0-.814-.23-1.488-.688-2.021-.46-.562-1.392-.94-2.798-1.137l-2.97-.38c-3.185-.393-5.524-1.333-7.016-2.822-1.463-1.488-2.195-3.468-2.195-5.939 0-1.32.258-2.527.775-3.622a8.148 8.148 0 0 1 2.195-2.823c.975-.786 2.152-1.39 3.53-1.81 1.405-.45 2.998-.675 4.777-.675 2.267 0 4.261.351 5.983 1.053 1.721.702 3.2 1.727 4.433 3.075l-4.347 4.297a8.333 8.333 0 0 0-2.626-1.98c-1.004-.534-2.28-.8-3.83-.8-1.464 0-2.554.252-3.272.758-.717.505-1.076 1.207-1.076 2.106 0 1.01.273 1.741.818 2.19.574.45 1.492.772 2.755.97l2.97.462c3.099.478 5.394 1.419 6.886 2.823 1.492 1.376 2.239 3.341 2.239 5.897 0 1.404-.259 2.696-.775 3.875a8.214 8.214 0 0 1-2.281 3.033c-.976.842-2.196 1.502-3.659 1.98-1.463.449-3.128.673-4.993.673Z"/></g><defs><linearGradient id="b" x1="24.423" x2="48.843" y1="24.997" y2="59.596" gradientUnits="userSpaceOnUse"><stop stop-color="#FFE6A5"/><stop offset=".31" stop-color="#EDCDFF"/><stop offset=".587" stop-color="#DE63BC"/><stop offset=".945" stop-color="#5A61FF"/></linearGradient><filter id="a" width="31.113" height="46.412" x="13.639" y="15.206" color-interpolation-filters="sRGB" filterUnits="userSpaceOnUse"><feFlood flood-opacity="0" result="BackgroundImageFix"/><feColorMatrix in="SourceAlpha" result="hardAlpha" values="0 0 0 0 0 0 0 0 0 0 0 0 0 0 0 0 0 0 127 0"/><feOffset dy="12"/><feGaussianBlur stdDeviation="2"/><feComposite in2="hardAlpha" operator="out"/><feColorMatrix values="0 0 0 0 0.1375 0 0 0 0 0.125469 0 0 0 0 0.125469 0 0 0 1 0"/><feBlend in2="BackgroundImageFix" result="effect1_dropShadow_2_12"/><feBlend in="SourceGraphic" in2="effect1_dropShadow_2_12" result="shape"/></filter></defs></svg>